<?xml version="1.0" encoding="UTF-8"?>
<svg id="Layer_2" xmlns="http://www.w3.org/2000/svg" version="1.1" viewBox="0 0 2187.6 1655.2">
  <!-- Generator: Adobe Illustrator 30.2.1, SVG Export Plug-In . SVG Version: 2.1.1 Build 1)  -->
  <defs>
    <style>
      .st0 {
        fill: #85417f;
      }

      .st1 {
        fill: #fff;
      }

      .st2 {
        fill: #f7ba40;
      }
    </style>
  </defs>
  <g id="Layer_1-2">
    <g>
      <polyline class="st2" points="744.2 739.5 631.4 674.4 631.4 539.5 744 604.5"/>
      <path class="st0" d="M976.4,603.8c-115-66.4-230-132.9-345-199.2v-134.9l345,199.2"/>
      <path class="st1" d="M1093,671.2l243.5-410.3c-108.7,62.8-131.6,76-243.6,140.6l-461.6-266.5V0l461.6,266.5L1554.7,0v674.4l-119.5,69c0-140.6,1-281.1,1.7-422.1l-343.9,620.4"/>
      <g>
        <polygon class="st0" points="314.9 1524 314.9 1650.3 291 1650.3 291 1592.4 251.5 1648.7 251.1 1648.7 213.1 1596.1 213.1 1650.3 190 1650.3 190 1524 190.2 1524 251.6 1611.2 314.6 1524 314.9 1524"/>
        <rect class="st0" x="391.6" y="1529" width="23.9" height="121.3"/>
        <polygon class="st0" points="601.4 1529 601.4 1655.2 600.8 1655.2 515.9 1578.6 516.4 1650.3 492.1 1650.3 492.1 1524.2 493.1 1524.2 577.8 1602 577.3 1529 601.4 1529"/>
        <path class="st0" d="M678.1,1529h36.2c15.5,0,28.2,3,38.2,9,10,6,17.3,13.7,21.8,23.2,4.6,9.5,6.8,19.7,6.8,30.6s-2.7,21.9-8.2,30.8c-5.5,8.9-12.9,15.7-22.2,20.5-9.3,4.8-19.5,7.2-30.6,7.2h-42.2v-121.3h0ZM716.1,1627.2c12.4,0,22.3-3.2,29.5-9.6,7.3-6.4,10.9-15.6,10.9-27.5s-2-17.4-6-23.1c-4-5.7-8.7-9.7-14-11.9-5.3-2.2-10.4-3.3-15.1-3.3h-19.5v75.3h14.2Z"/>
        <polygon class="st0" points="933.2 1529 933.2 1552.1 874.4 1552.1 874.4 1577.9 926.5 1577.9 926.5 1601 874.4 1601 874.4 1627.2 935.5 1627.2 935.5 1650.3 850.5 1650.3 850.5 1529 933.2 1529"/>
        <path class="st0" d="M1005.6,1529h36.3c15.5,0,28.2,3,38.2,9,10,6,17.3,13.7,21.8,23.2,4.6,9.5,6.8,19.7,6.8,30.6s-2.7,21.9-8.2,30.8c-5.5,8.9-12.9,15.7-22.2,20.5-9.3,4.8-19.5,7.2-30.6,7.2h-42.2v-121.3h0ZM1043.6,1627.2c12.4,0,22.2-3.2,29.5-9.6,7.3-6.4,10.9-15.6,10.9-27.5s-2-17.4-6-23.1c-4-5.7-8.7-9.7-14-11.9-5.3-2.2-10.3-3.3-15.1-3.3h-19.5v75.3h14.2,0Z"/>
        <polygon class="st0" points="1401.8 1524 1401.8 1650.3 1377.9 1650.3 1377.9 1592.4 1338.4 1648.7 1338 1648.7 1300 1596.1 1300 1650.3 1276.9 1650.3 1276.9 1524 1277 1524 1338.5 1611.2 1401.5 1524 1401.8 1524"/>
        <polygon class="st0" points="1561.2 1529 1561.2 1552.1 1502.4 1552.1 1502.4 1577.9 1554.4 1577.9 1554.4 1601 1502.4 1601 1502.4 1627.2 1563.5 1627.2 1563.5 1650.3 1478.5 1650.3 1478.5 1529 1561.2 1529"/>
        <path class="st0" d="M1633.6,1529h36.3c15.5,0,28.2,3,38.2,9,10,6,17.3,13.7,21.8,23.2,4.6,9.5,6.8,19.7,6.8,30.6s-2.7,21.9-8.2,30.8c-5.5,8.9-12.9,15.7-22.2,20.5-9.3,4.8-19.5,7.2-30.6,7.2h-42.2v-121.3h0ZM1671.6,1627.2c12.4,0,22.2-3.2,29.5-9.6,7.3-6.4,10.9-15.6,10.9-27.5s-2-17.4-6-23.1c-4-5.7-8.7-9.7-14-11.9-5.3-2.2-10.3-3.3-15.1-3.3h-19.5v75.3h14.2,0Z"/>
        <rect class="st0" x="1806" y="1529" width="23.9" height="121.3"/>
        <path class="st0" d="M1966.5,1626.6h-40.2l-9.9,23.7h-23.6l54.7-126.1h1.3l54.7,126.1h-27.7l-9.4-23.7h0ZM1958.6,1606.4l-11.7-29.5-12.2,29.5h23.9,0Z"/>
        <path class="st1" d="M520.4,1300.6c0,73.1-52.4,132.4-135.6,132.4s-135.3-59.3-135.3-132.4,52-132.4,135.3-132.4,135.6,59.3,135.6,132.4M458.6,1300.6c0-40.7-25.1-79.3-73.8-79.3s-73.5,38.6-73.5,79.3,24.7,79.3,73.5,79.3,73.8-38.9,73.8-79.3"/>
        <path class="st1" d="M695,1360.6h-25.5v67.3h-61.8v-254.6h124c53.8,0,93.8,40.7,93.8,93.8s-22.2,71.6-55.3,85.8l69.1,74.9h-83.3l-61.1-67.3h0ZM723,1307.5c22.9,0,40.7-15.6,40.7-40.4s-17.8-40.7-40.7-40.7h-53.5v81.1h53.5Z"/>
        <polygon class="st1" points="1158.7 1326 1201.3 1173.3 1264.6 1173.3 1183.1 1427.9 1138.4 1427.9 1079.8 1260.9 1021.3 1427.9 976.5 1427.9 895.1 1173.3 958.3 1173.3 1000.9 1326 1056.9 1173.3 1102.7 1173.3 1158.7 1326"/>
        <path class="st1" d="M1478.4,1391.9h-105.8l-12.7,36h-66.9l109.5-254.6h46.6l109.5,254.6h-66.9l-13.1-36h0ZM1390.8,1341.3h69.5l-34.6-96-34.9,96h0Z"/>
        <path class="st1" d="M1726.5,1360.6h-25.5v67.3h-61.8v-254.6h124c53.8,0,93.8,40.7,93.8,93.8s-22.2,71.6-55.3,85.8l69.1,74.9h-83.3l-61.1-67.3h0ZM1754.5,1307.5c22.9,0,40.7-15.6,40.7-40.4s-17.8-40.7-40.7-40.7h-53.5v81.1h53.5Z"/>
        <path class="st1" d="M2032,1173.3c101.8,0,155.6,54.9,155.6,127.3s-53.8,127.3-155.7,127.3h-80.4v-254.6h80.4ZM2026.2,1375.9c63.6,0,99.6-25.5,99.6-75.3s-36-75.3-99.6-75.3h-12.7v150.6h12.7Z"/>
        <polygon class="st1" points="0 1427.9 61.8 1427.9 61.8 1330 169.8 1330 169.8 1276.4 0 1276.4 0 1427.9"/>
        <rect class="st1" y="1173.3" width="173.1" height="53.5"/>
      </g>
    </g>
  </g>
</svg>